<svg xmlns="http://www.w3.org/2000/svg" version="1" width="800" height="170.441" viewBox="0 0 800 170.441"><g fill="#074b88" fill-rule="evenodd"><path d="M115.655 126.815c0 25.565 22.116 43.626 53.566 43.626 31.653 0 53.771-18.061 53.771-43.626 0-25.769-22.118-43.828-53.771-43.828-31.45 0-53.566 18.059-53.566 43.828zm22.116 0c0-15.217 12.582-25.564 31.451-25.564 19.073 0 31.653 10.348 31.653 25.564 0 15.013-12.58 25.364-31.653 25.364-18.869 0-31.451-10.351-31.451-25.364zM253.428 91.713v-6.494h-21.306v82.987h21.508v-44.23c0-7.509.813-15.222 10.958-18.871 3.447-1.22 6.899-1.825 10.956-1.825h3.044V82.987s-13.595 0-25.16 8.726zM365.836 54.784v36.93c-8.521-5.682-20.088-8.726-32.463-8.726-31.655 0-53.771 17.854-53.771 43.624 0 25.77 22.115 43.625 53.771 43.625 12.375 0 23.535-2.839 32.463-7.913v5.884h21.103V54.784h-21.103zm-64.118 72.031c0-15.217 12.785-25.564 31.655-25.564 18.869 0 31.653 10.348 31.653 25.564 0 15.013-12.785 25.364-31.653 25.364-18.871 0-31.655-10.351-31.655-25.364zM511.32 126.611c0 26.179 21.505 43.83 53.363 43.83 12.987 0 24.755-2.435 32.668-7.913 0 2.029.204 5.679.204 5.679h21.101V127.22c0-26.579-21.51-44.233-53.567-44.233-31.653 0-53.769 18.059-53.769 43.624zm22.116 0c0-15.013 12.782-25.36 31.653-25.36 18.87 0 31.652 10.348 31.652 25.36 0 15.217-12.782 25.364-31.652 25.364-18.871 0-31.653-10.147-31.653-25.364zM503.607 134.933c-2.636 13.388-11.768 22.726-21.911 28.204-9.133 5.069-19.276 7.304-31.248 7.304-32.873-.205-53.566-20.09-53.566-43.221 0-26.174 22.724-44.436 53.566-44.233 40.781.203 53.159 25.767 54.174 41.594 0 0-78.729 17.046-79.943 17.246 5.68 6.493 14.407 10.147 25.77 10.147 13.392.204 23.13-5.073 27.799-11.567l25.359-5.474zm-84.203-10.351c2.636-.605 55.188-11.969 58.028-12.578-4.664-6.088-13.997-10.753-26.984-10.957-18.06.609-30.233 10.142-31.044 23.535zM86.234 168.207l20.493.205V66.146H85.422v69.802L20.898 65.944H0v102.468h21.101v-68.38l65.133 68.175zM658.829 57.625c8.322 30.233 4.059 57.218-7.709 72.435 57.218-18.462 121.743-80.146 109.771-113.219-6.898-19.073-56.408-21.508-126.208-5.48 10.348 10.959 18.872 27.191 24.146 46.264z"/><path d="M767.185 44.843c6.895-14.204 8.318-26.786 4.664-37.539-1.015-2.84-2.435-5.074-4.059-7.304 19.275 2.637 36.522 31.449 31.248 63.914-4.26 24.959-13.797 46.871-24.35 59.857-13.393-6.693-41.596-8.318-73.449-3.249a249.556 249.556 0 0 0-19.276 4.06c36.117-19.072 71.22-51.13 85.222-79.739z"/></g></svg>